<?xml version="1.0" standalone="no"?>
<!DOCTYPE svg PUBLIC "-//W3C//DTD SVG 20010904//EN"
 "http://www.w3.org/TR/2001/REC-SVG-20010904/DTD/svg10.dtd">
<svg version="1.0" xmlns="http://www.w3.org/2000/svg"
 width="512.000000pt" height="512.000000pt" viewBox="0 0 512.000000 512.000000"
 preserveAspectRatio="xMidYMid meet">

<g transform="translate(0.000000,512.000000) scale(0.100000,-0.100000)"
fill="#000000" stroke="none">
<path d="M835 4381 c-48 -22 -79 -54 -100 -103 -19 -47 -19 -79 0 -126 11 -26
248 -269 793 -814 l777 -778 -782 -782 c-842 -844 -815 -814 -799 -901 13 -71
82 -140 153 -153 87 -16 57 -43 901 799 l782 782 783 -782 c843 -842 813 -815
900 -799 71 13 140 82 153 153 16 87 43 57 -799 901 l-782 782 782 783 c842
843 815 813 799 900 -13 71 -82 140 -153 153 -87 16 -57 43 -901 -799 l-782
-782 -778 777 c-545 545 -788 782 -814 793 -49 20 -84 19 -133 -4z"/>
</g>
</svg>
